<mxfile host="app.diagrams.net" modified="2023-12-08T16:38:57.546Z" agent="Mozilla/5.0 (Windows NT 10.0; Win64; x64) AppleWebKit/537.36 (KHTML, like Gecko) Chrome/119.0.0.0 Safari/537.36" etag="8j__37sJtk-tqgdYNMuX" version="22.1.7" type="onedrive">
  <diagram name="Page-1" id="r7QO4Svnjzv9mqoSbV15">
    <mxGraphModel grid="1" page="1" gridSize="10" guides="1" tooltips="1" connect="1" arrows="1" fold="1" pageScale="1" pageWidth="827" pageHeight="1169" math="0" shadow="0">
      <root>
        <mxCell id="0" />
        <mxCell id="1" parent="0" />
        <mxCell id="G3q_HlLeswZoW_-VU9tr-39" style="edgeStyle=orthogonalEdgeStyle;rounded=0;orthogonalLoop=1;jettySize=auto;html=1;exitX=1;exitY=0.5;exitDx=0;exitDy=0;startArrow=block;startFill=0;" edge="1" parent="1" target="G3q_HlLeswZoW_-VU9tr-42">
          <mxGeometry relative="1" as="geometry">
            <mxPoint x="580" y="575.5714285714287" as="targetPoint" />
            <mxPoint x="363.21000000000004" y="575" as="sourcePoint" />
          </mxGeometry>
        </mxCell>
        <mxCell id="G3q_HlLeswZoW_-VU9tr-41" style="edgeStyle=orthogonalEdgeStyle;rounded=0;orthogonalLoop=1;jettySize=auto;html=1;" edge="1" parent="1" source="G3q_HlLeswZoW_-VU9tr-42" target="G3q_HlLeswZoW_-VU9tr-45">
          <mxGeometry relative="1" as="geometry">
            <mxPoint x="620" y="620" as="targetPoint" />
          </mxGeometry>
        </mxCell>
        <mxCell id="G3q_HlLeswZoW_-VU9tr-42" value="&lt;div style=&quot;color: rgb(56, 58, 66); font-family: Consolas, &amp;quot;Courier New&amp;quot;, monospace; font-size: 14px; line-height: 19px;&quot;&gt;&lt;div style=&quot;&quot;&gt;&lt;span style=&quot;color: rgb(64, 120, 242);&quot;&gt;unpackFunc_d&lt;/span&gt;(&lt;span style=&quot;color: rgb(166, 38, 164);&quot;&gt;*&lt;/span&gt;returnArr)&lt;/div&gt;&lt;/div&gt;" style="rounded=0;whiteSpace=wrap;html=1;fillColor=#dae8fc;strokeColor=#6c8ebf;" vertex="1" parent="1">
          <mxGeometry x="510" y="562.22" width="220" height="25.57" as="geometry" />
        </mxCell>
        <mxCell id="G3q_HlLeswZoW_-VU9tr-59" style="edgeStyle=orthogonalEdgeStyle;rounded=0;orthogonalLoop=1;jettySize=auto;html=1;exitX=1;exitY=0.5;exitDx=0;exitDy=0;startArrow=block;startFill=0;" edge="1" parent="1" source="G3q_HlLeswZoW_-VU9tr-45">
          <mxGeometry relative="1" as="geometry">
            <mxPoint x="940" y="655" as="targetPoint" />
          </mxGeometry>
        </mxCell>
        <mxCell id="G3q_HlLeswZoW_-VU9tr-60" style="edgeStyle=orthogonalEdgeStyle;rounded=0;orthogonalLoop=1;jettySize=auto;html=1;exitX=0.5;exitY=1;exitDx=0;exitDy=0;" edge="1" parent="1" source="G3q_HlLeswZoW_-VU9tr-45" target="G3q_HlLeswZoW_-VU9tr-61">
          <mxGeometry relative="1" as="geometry">
            <mxPoint x="620" y="740" as="targetPoint" />
          </mxGeometry>
        </mxCell>
        <mxCell id="G3q_HlLeswZoW_-VU9tr-45" value="&lt;span style=&quot;color: rgb(56, 58, 66); font-family: Consolas, &amp;quot;Courier New&amp;quot;, monospace; font-size: 14px;&quot;&gt;newRWMemPlus0x940f &lt;/span&gt;&lt;span style=&quot;font-family: Consolas, &amp;quot;Courier New&amp;quot;, monospace; font-size: 14px; color: rgb(166, 38, 164);&quot;&gt;=&lt;/span&gt;&lt;span style=&quot;color: rgb(56, 58, 66); font-family: Consolas, &amp;quot;Courier New&amp;quot;, monospace; font-size: 14px;&quot;&gt; [returnArr&lt;/span&gt;&lt;span style=&quot;font-family: Consolas, &amp;quot;Courier New&amp;quot;, monospace; font-size: 14px; color: rgb(166, 38, 164);&quot;&gt;+&lt;/span&gt;&lt;span style=&quot;font-family: Consolas, &amp;quot;Courier New&amp;quot;, monospace; font-size: 14px; color: rgb(152, 104, 1);&quot;&gt;0x34&lt;/span&gt;&lt;span style=&quot;color: rgb(56, 58, 66); font-family: Consolas, &amp;quot;Courier New&amp;quot;, monospace; font-size: 14px;&quot;&gt;]&lt;/span&gt;&lt;br&gt;&lt;div style=&quot;color: rgb(56, 58, 66); font-family: Consolas, &amp;quot;Courier New&amp;quot;, monospace; font-weight: normal; font-size: 14px; line-height: 19px;&quot;&gt;&lt;div style=&quot;&quot;&gt;&lt;span style=&quot;color: #383a42;&quot;&gt;_0x3f400 &lt;/span&gt;&lt;span style=&quot;color: #a626a4;&quot;&gt;=&lt;/span&gt;&lt;span style=&quot;color: #383a42;&quot;&gt; [returnArr&lt;/span&gt;&lt;span style=&quot;color: #a626a4;&quot;&gt;+&lt;/span&gt;&lt;span style=&quot;color: #986801;&quot;&gt;0x38&lt;/span&gt;&lt;span style=&quot;color: #383a42;&quot;&gt;]&lt;/span&gt;&lt;/div&gt;&lt;div style=&quot;&quot;&gt;&lt;span style=&quot;color: rgb(64, 120, 242);&quot;&gt;decryptFunc_d&lt;/span&gt;&lt;span style=&quot;color: rgb(56, 58, 66);&quot;&gt;(newRWMemPlus0x940f, _0x3f400)&lt;/span&gt;&lt;/div&gt;&lt;/div&gt;" style="rounded=1;whiteSpace=wrap;html=1;" vertex="1" parent="1">
          <mxGeometry x="440" y="620" width="360" height="70" as="geometry" />
        </mxCell>
        <mxCell id="s-imGBTmO93pjf123Bl--1" style="edgeStyle=orthogonalEdgeStyle;rounded=0;orthogonalLoop=1;jettySize=auto;html=1;exitX=0.5;exitY=1;exitDx=0;exitDy=0;" edge="1" parent="1" source="G3q_HlLeswZoW_-VU9tr-61" target="s-imGBTmO93pjf123Bl--2">
          <mxGeometry relative="1" as="geometry">
            <mxPoint x="620.2352941176471" y="870" as="targetPoint" />
          </mxGeometry>
        </mxCell>
        <mxCell id="G3q_HlLeswZoW_-VU9tr-61" value="&lt;div style=&quot;color: rgb(56, 58, 66); font-family: Consolas, &amp;quot;Courier New&amp;quot;, monospace; font-size: 14px; line-height: 19px;&quot;&gt;&lt;div style=&quot;&quot;&gt;peAddr = &lt;span style=&quot;color: rgb(64, 120, 242);&quot;&gt;getPEHeader_d&lt;/span&gt;(newRWMemPlus0x940f)&lt;/div&gt;&lt;div style=&quot;&quot;&gt;VirtualAlloc &lt;span style=&quot;color: #a626a4;&quot;&gt;=&lt;/span&gt; [returnArr&lt;span style=&quot;color: #a626a4;&quot;&gt;+&lt;/span&gt;&lt;span style=&quot;color: #986801;&quot;&gt;0x1c&lt;/span&gt;]&lt;/div&gt;&lt;div style=&quot;&quot;&gt;sizeOfImage &lt;span style=&quot;color: rgb(166, 38, 164);&quot;&gt;=&lt;/span&gt; [peAddr&lt;span style=&quot;color: rgb(166, 38, 164);&quot;&gt;+&lt;/span&gt;&lt;span style=&quot;color: rgb(152, 104, 1);&quot;&gt;0x50&lt;/span&gt;]&lt;/div&gt;&lt;div style=&quot;&quot;&gt;newestRWMem &lt;span style=&quot;color: rgb(166, 38, 164);&quot;&gt;=&lt;/span&gt; &lt;span style=&quot;color: rgb(64, 120, 242);&quot;&gt;VirtualAlloc&lt;/span&gt;(&lt;span style=&quot;color: rgb(152, 104, 1);&quot;&gt;0&lt;/span&gt;,sizeOfImage,&lt;span style=&quot;color: rgb(152, 104, 1);&quot;&gt;0x1000&lt;/span&gt;,&lt;span style=&quot;color: rgb(152, 104, 1);&quot;&gt;0x4&lt;/span&gt;)&lt;/div&gt;&lt;div style=&quot;&quot;&gt;&lt;span style=&quot;color: rgb(64, 120, 242);&quot;&gt;copyDecrypted_d&lt;/span&gt;(newRWMemPlus0x940f,newestRWMem)&lt;/div&gt;&lt;/div&gt;" style="rounded=1;whiteSpace=wrap;html=1;" vertex="1" parent="1">
          <mxGeometry x="410" y="710" width="420" height="120" as="geometry" />
        </mxCell>
        <mxCell id="G3q_HlLeswZoW_-VU9tr-62" style="edgeStyle=orthogonalEdgeStyle;rounded=0;orthogonalLoop=1;jettySize=auto;html=1;startArrow=block;startFill=0;exitX=1;exitY=0.169;exitDx=0;exitDy=0;exitPerimeter=0;" edge="1" parent="1" source="G3q_HlLeswZoW_-VU9tr-61">
          <mxGeometry relative="1" as="geometry">
            <mxPoint x="970" y="730" as="targetPoint" />
            <mxPoint x="830" y="740" as="sourcePoint" />
            <Array as="points">
              <mxPoint x="970" y="730" />
            </Array>
          </mxGeometry>
        </mxCell>
        <mxCell id="G3q_HlLeswZoW_-VU9tr-63" style="edgeStyle=orthogonalEdgeStyle;rounded=0;orthogonalLoop=1;jettySize=auto;html=1;startArrow=block;startFill=0;exitX=1;exitY=0.875;exitDx=0;exitDy=0;exitPerimeter=0;endArrow=classic;endFill=1;" edge="1" parent="1" source="G3q_HlLeswZoW_-VU9tr-61">
          <mxGeometry relative="1" as="geometry">
            <mxPoint x="990" y="815" as="targetPoint" />
            <mxPoint x="840" y="830" as="sourcePoint" />
            <Array as="points">
              <mxPoint x="980" y="815" />
            </Array>
          </mxGeometry>
        </mxCell>
        <mxCell id="s-imGBTmO93pjf123Bl--3" style="edgeStyle=orthogonalEdgeStyle;rounded=0;orthogonalLoop=1;jettySize=auto;html=1;exitX=0.5;exitY=1;exitDx=0;exitDy=0;" edge="1" parent="1" source="s-imGBTmO93pjf123Bl--2" target="s-imGBTmO93pjf123Bl--4">
          <mxGeometry relative="1" as="geometry">
            <mxPoint x="620.2352941176471" y="980" as="targetPoint" />
          </mxGeometry>
        </mxCell>
        <mxCell id="s-imGBTmO93pjf123Bl--2" value="&lt;div style=&quot;color: rgb(56, 58, 66); font-family: Consolas, &amp;quot;Courier New&amp;quot;, monospace; font-size: 14px; line-height: 19px;&quot;&gt;&lt;div style=&quot;&quot;&gt;copyDecrypted_d(newRWMemPlus0x940f,newestRWMem)&lt;/div&gt;&lt;div style=&quot;&quot;&gt;&lt;span style=&quot;color: #4078f2;&quot;&gt;newMemSet&lt;/span&gt;(newRWMemPlus0x940f, &lt;span style=&quot;color: #986801;&quot;&gt;0x00&lt;/span&gt;, _0x3f400)&lt;/div&gt;&lt;/div&gt;" style="rounded=1;whiteSpace=wrap;html=1;" vertex="1" parent="1">
          <mxGeometry x="413" y="860" width="414.94" height="60" as="geometry" />
        </mxCell>
        <mxCell id="s-imGBTmO93pjf123Bl--4" value="&lt;div style=&quot;border-color: var(--border-color); color: rgb(56, 58, 66); font-family: Consolas, &amp;quot;Courier New&amp;quot;, monospace; font-size: 14px;&quot;&gt;newestPEAddr&amp;nbsp;=&amp;nbsp;&lt;span style=&quot;border-color: var(--border-color); color: rgb(64, 120, 242);&quot;&gt;getPEHeader_d&lt;/span&gt;(newestRWMem)&lt;/div&gt;&lt;div style=&quot;border-color: var(--border-color); color: rgb(56, 58, 66); font-family: Consolas, &amp;quot;Courier New&amp;quot;, monospace; font-size: 14px;&quot;&gt;baseOffset&amp;nbsp;&lt;span style=&quot;border-color: var(--border-color); color: rgb(166, 38, 164);&quot;&gt;=&lt;/span&gt;&amp;nbsp;[returnArr&lt;span style=&quot;border-color: var(--border-color); color: rgb(166, 38, 164);&quot;&gt;+&lt;/span&gt;&lt;span style=&quot;border-color: var(--border-color); color: rgb(152, 104, 1);&quot;&gt;0x4c&lt;/span&gt;]&lt;span style=&quot;border-color: var(--border-color); color: rgb(166, 38, 164);&quot;&gt;-&lt;/span&gt;[newestPEAddr&lt;span style=&quot;border-color: var(--border-color); color: rgb(166, 38, 164);&quot;&gt;+&lt;/span&gt;&lt;span style=&quot;border-color: var(--border-color); color: rgb(152, 104, 1);&quot;&gt;0x34&lt;/span&gt;]&lt;/div&gt;&lt;div style=&quot;border-color: var(--border-color); color: rgb(56, 58, 66); font-family: Consolas, &amp;quot;Courier New&amp;quot;, monospace; font-size: 14px;&quot;&gt;&lt;span style=&quot;border-color: var(--border-color); color: rgb(64, 120, 242);&quot;&gt;useRelocTable&lt;/span&gt;(newestRWMem, baseOffset)&lt;/div&gt;&lt;div style=&quot;border-color: var(--border-color); color: rgb(56, 58, 66); font-family: Consolas, &amp;quot;Courier New&amp;quot;, monospace; font-size: 14px;&quot;&gt;&lt;span style=&quot;border-color: var(--border-color); color: rgb(64, 120, 242);&quot;&gt;loadImports&lt;/span&gt;(newestRWMem,&amp;nbsp;&lt;span style=&quot;border-color: var(--border-color); color: rgb(166, 38, 164);&quot;&gt;*&lt;/span&gt;returnArr)&lt;/div&gt;&lt;div style=&quot;border-color: var(--border-color); color: rgb(56, 58, 66); font-family: Consolas, &amp;quot;Courier New&amp;quot;, monospace; font-size: 14px;&quot;&gt;[returnArray&lt;span style=&quot;border-color: var(--border-color); color: rgb(166, 38, 164);&quot;&gt;+&lt;/span&gt;&lt;span style=&quot;border-color: var(--border-color); color: rgb(152, 104, 1);&quot;&gt;0x3c&lt;/span&gt;]&lt;span style=&quot;border-color: var(--border-color); color: rgb(166, 38, 164);&quot;&gt;=&lt;/span&gt;newestRWMem&lt;/div&gt;&lt;div style=&quot;border-color: var(--border-color); color: rgb(56, 58, 66); font-family: Consolas, &amp;quot;Courier New&amp;quot;, monospace; font-size: 14px;&quot;&gt;[returnArray&lt;span style=&quot;border-color: var(--border-color); color: rgb(166, 38, 164);&quot;&gt;+&lt;/span&gt;&lt;span style=&quot;border-color: var(--border-color); color: rgb(152, 104, 1);&quot;&gt;0x40&lt;/span&gt;]&lt;span style=&quot;border-color: var(--border-color); color: rgb(166, 38, 164);&quot;&gt;=&lt;/span&gt;&lt;span style=&quot;border-color: var(--border-color); color: rgb(152, 104, 1);&quot;&gt;0x4&lt;/span&gt;&lt;/div&gt;&lt;div style=&quot;border-color: var(--border-color); color: rgb(56, 58, 66); font-family: Consolas, &amp;quot;Courier New&amp;quot;, monospace; font-size: 14px;&quot;&gt;[returnArray&lt;span style=&quot;border-color: var(--border-color); color: rgb(166, 38, 164);&quot;&gt;+&lt;/span&gt;&lt;span style=&quot;border-color: var(--border-color); color: rgb(152, 104, 1);&quot;&gt;0x44&lt;/span&gt;]&lt;span style=&quot;border-color: var(--border-color); color: rgb(166, 38, 164);&quot;&gt;=&lt;/span&gt;&lt;span style=&quot;border-color: var(--border-color); color: rgb(152, 104, 1);&quot;&gt;0x265e8&lt;/span&gt;&lt;/div&gt;&lt;div style=&quot;border-color: var(--border-color); color: rgb(56, 58, 66); font-family: Consolas, &amp;quot;Courier New&amp;quot;, monospace; font-size: 14px;&quot;&gt;[returnArray&lt;span style=&quot;border-color: var(--border-color); color: rgb(166, 38, 164);&quot;&gt;+&lt;/span&gt;&lt;span style=&quot;border-color: var(--border-color); color: rgb(152, 104, 1);&quot;&gt;0x48&lt;/span&gt;]&lt;span style=&quot;border-color: var(--border-color); color: rgb(166, 38, 164);&quot;&gt;=&lt;/span&gt;&lt;span style=&quot;border-color: var(--border-color); color: rgb(152, 104, 1);&quot;&gt;0x85000&lt;/span&gt;&lt;/div&gt;&lt;div style=&quot;border-color: var(--border-color); color: rgb(56, 58, 66); font-family: Consolas, &amp;quot;Courier New&amp;quot;, monospace; font-size: 14px;&quot;&gt;[newestPEAddr&lt;span style=&quot;border-color: var(--border-color); color: rgb(166, 38, 164);&quot;&gt;+&lt;/span&gt;&lt;span style=&quot;border-color: var(--border-color); color: rgb(152, 104, 1);&quot;&gt;0xcc&lt;/span&gt;]&amp;nbsp;&lt;span style=&quot;border-color: var(--border-color); color: rgb(166, 38, 164);&quot;&gt;=&lt;/span&gt;&amp;nbsp;&lt;span style=&quot;border-color: var(--border-color); color: rgb(152, 104, 1);&quot;&gt;0&lt;/span&gt;&lt;br style=&quot;border-color: var(--border-color);&quot;&gt;&lt;/div&gt;&lt;div style=&quot;border-color: var(--border-color); color: rgb(56, 58, 66); font-family: Consolas, &amp;quot;Courier New&amp;quot;, monospace; font-size: 14px;&quot;&gt;[newestPEAddr&lt;span style=&quot;border-color: var(--border-color); color: rgb(166, 38, 164);&quot;&gt;+&lt;/span&gt;&lt;span style=&quot;border-color: var(--border-color); color: rgb(152, 104, 1);&quot;&gt;0xc8&lt;/span&gt;]&amp;nbsp;&lt;span style=&quot;border-color: var(--border-color); color: rgb(166, 38, 164);&quot;&gt;=&lt;/span&gt;&amp;nbsp;&lt;span style=&quot;border-color: var(--border-color); color: rgb(152, 104, 1);&quot;&gt;0&lt;/span&gt;&lt;/div&gt;&lt;div style=&quot;border-color: var(--border-color); color: rgb(56, 58, 66); font-family: Consolas, &amp;quot;Courier New&amp;quot;, monospace; font-size: 14px;&quot;&gt;&lt;span style=&quot;border-color: var(--border-color); color: rgb(166, 38, 164);&quot;&gt;return&lt;/span&gt;&amp;nbsp;&lt;span style=&quot;border-color: var(--border-color); color: rgb(152, 104, 1);&quot;&gt;0&lt;/span&gt;&lt;/div&gt;" style="rounded=1;whiteSpace=wrap;html=1;" vertex="1" parent="1">
          <mxGeometry x="425.29999999999995" y="950" width="389.41" height="200" as="geometry" />
        </mxCell>
        <mxCell id="s-imGBTmO93pjf123Bl--5" style="edgeStyle=orthogonalEdgeStyle;rounded=0;orthogonalLoop=1;jettySize=auto;html=1;startArrow=block;startFill=0;exitX=1;exitY=0.875;exitDx=0;exitDy=0;exitPerimeter=0;endArrow=classic;endFill=1;" edge="1" parent="1">
          <mxGeometry relative="1" as="geometry">
            <mxPoint x="987.94" y="880" as="targetPoint" />
            <mxPoint x="827.94" y="880" as="sourcePoint" />
            <Array as="points">
              <mxPoint x="977.94" y="880" />
            </Array>
          </mxGeometry>
        </mxCell>
        <mxCell id="s-imGBTmO93pjf123Bl--6" style="edgeStyle=orthogonalEdgeStyle;rounded=0;orthogonalLoop=1;jettySize=auto;html=1;startArrow=block;startFill=0;exitX=1;exitY=0.75;exitDx=0;exitDy=0;endArrow=classic;endFill=1;entryX=0.5;entryY=0;entryDx=0;entryDy=0;" edge="1" parent="1" source="s-imGBTmO93pjf123Bl--2" target="s-imGBTmO93pjf123Bl--21">
          <mxGeometry relative="1" as="geometry">
            <mxPoint x="922" y="940" as="targetPoint" />
            <mxPoint x="830" y="950" as="sourcePoint" />
            <Array as="points">
              <mxPoint x="922" y="905" />
              <mxPoint x="922" y="930" />
            </Array>
          </mxGeometry>
        </mxCell>
        <mxCell id="s-imGBTmO93pjf123Bl--9" value="" style="edgeStyle=orthogonalEdgeStyle;rounded=0;orthogonalLoop=1;jettySize=auto;html=1;" edge="1" parent="1" source="s-imGBTmO93pjf123Bl--7" target="s-imGBTmO93pjf123Bl--8">
          <mxGeometry relative="1" as="geometry" />
        </mxCell>
        <mxCell id="s-imGBTmO93pjf123Bl--7" value="&lt;div style=&quot;color: rgb(56, 58, 66); font-family: Consolas, &amp;quot;Courier New&amp;quot;, monospace; font-size: 14px; line-height: 19px;&quot;&gt;&lt;div style=&quot;line-height: 19px;&quot;&gt;&lt;div style=&quot;&quot;&gt;&lt;span style=&quot;color: rgb(166, 38, 164);&quot;&gt;if&lt;/span&gt; size&lt;span style=&quot;color: rgb(166, 38, 164);&quot;&gt;!=&lt;/span&gt;&lt;span style=&quot;color: rgb(152, 104, 1);&quot;&gt;0&lt;/span&gt;:&lt;br&gt;&lt;/div&gt;&lt;div style=&quot;&quot;&gt;&amp;nbsp; count&lt;span style=&quot;color: rgb(166, 38, 164);&quot;&gt;=&lt;/span&gt;&lt;span style=&quot;color: rgb(152, 104, 1);&quot;&gt;0&lt;/span&gt;&lt;/div&gt;&lt;/div&gt;&lt;/div&gt;" style="rounded=1;whiteSpace=wrap;html=1;align=left;" vertex="1" parent="1">
          <mxGeometry x="872.06" y="975" width="100" height="60" as="geometry" />
        </mxCell>
        <mxCell id="s-imGBTmO93pjf123Bl--15" style="edgeStyle=orthogonalEdgeStyle;rounded=0;orthogonalLoop=1;jettySize=auto;html=1;exitX=0.5;exitY=1;exitDx=0;exitDy=0;" edge="1" parent="1" source="s-imGBTmO93pjf123Bl--8" target="s-imGBTmO93pjf123Bl--16">
          <mxGeometry relative="1" as="geometry">
            <mxPoint x="922.2952941176472" y="1155" as="targetPoint" />
          </mxGeometry>
        </mxCell>
        <mxCell id="s-imGBTmO93pjf123Bl--8" value="&lt;div style=&quot;color: rgb(56, 58, 66); font-family: Consolas, &amp;quot;Courier New&amp;quot;, monospace; font-size: 14px; line-height: 19px;&quot;&gt;&lt;div style=&quot;&quot;&gt;dst&lt;span style=&quot;color: rgb(166, 38, 164);&quot;&gt;+&lt;/span&gt;count] &lt;span style=&quot;color: rgb(166, 38, 164);&quot;&gt;=&lt;/span&gt; val&lt;br&gt;&lt;/div&gt;&lt;div style=&quot;&quot;&gt;count&lt;span style=&quot;color: rgb(166, 38, 164);&quot;&gt;+=&lt;/span&gt;&lt;span style=&quot;color: rgb(152, 104, 1);&quot;&gt;1&lt;/span&gt;&lt;/div&gt;&lt;/div&gt;" style="whiteSpace=wrap;html=1;align=left;rounded=1;" vertex="1" parent="1">
          <mxGeometry x="849.56" y="1075" width="145" height="50" as="geometry" />
        </mxCell>
        <mxCell id="s-imGBTmO93pjf123Bl--12" style="edgeStyle=orthogonalEdgeStyle;rounded=0;orthogonalLoop=1;jettySize=auto;html=1;exitX=0.5;exitY=1;exitDx=0;exitDy=0;entryX=0.5;entryY=0;entryDx=0;entryDy=0;" edge="1" parent="1" source="s-imGBTmO93pjf123Bl--8" target="s-imGBTmO93pjf123Bl--8">
          <mxGeometry relative="1" as="geometry">
            <Array as="points">
              <mxPoint x="922.06" y="1135" />
              <mxPoint x="1052.06" y="1135" />
              <mxPoint x="1052.06" y="1055" />
              <mxPoint x="922.06" y="1055" />
            </Array>
          </mxGeometry>
        </mxCell>
        <mxCell id="s-imGBTmO93pjf123Bl--14" value="&lt;div style=&quot;color: rgb(56, 58, 66); font-family: Consolas, &amp;quot;Courier New&amp;quot;, monospace; font-size: 14px; line-height: 19px;&quot;&gt;&lt;div style=&quot;background-color: rgb(250, 250, 250);&quot;&gt;&lt;/div&gt;&lt;div style=&quot;&quot;&gt;count&lt;span style=&quot;color: rgb(166, 38, 164);&quot;&gt;+&lt;/span&gt;&lt;span style=&quot;color: rgb(152, 104, 1);&quot;&gt;1&lt;/span&gt;&lt;span style=&quot;color: rgb(166, 38, 164);&quot;&gt;!=&lt;/span&gt;size&lt;/div&gt;&lt;/div&gt;" style="edgeLabel;html=1;align=center;verticalAlign=middle;resizable=0;points=[];" connectable="0" vertex="1" parent="1">
          <mxGeometry x="982.06" y="1055.0035294117647" as="geometry" />
        </mxCell>
        <mxCell id="s-imGBTmO93pjf123Bl--16" value="&lt;span style=&quot;border-color: var(--border-color); font-family: Consolas, &amp;quot;Courier New&amp;quot;, monospace; font-size: 14px; font-style: normal; font-variant-ligatures: normal; font-variant-caps: normal; font-weight: 400; letter-spacing: normal; orphans: 2; text-align: left; text-indent: 0px; text-transform: none; widows: 2; word-spacing: 0px; -webkit-text-stroke-width: 0px; text-decoration-thickness: initial; text-decoration-style: initial; text-decoration-color: initial; color: rgb(166, 38, 164);&quot;&gt;return&lt;/span&gt;&lt;span style=&quot;color: rgb(56, 58, 66); font-family: Consolas, &amp;quot;Courier New&amp;quot;, monospace; font-size: 14px; font-style: normal; font-variant-ligatures: normal; font-variant-caps: normal; font-weight: 400; letter-spacing: normal; orphans: 2; text-align: left; text-indent: 0px; text-transform: none; widows: 2; word-spacing: 0px; -webkit-text-stroke-width: 0px; text-decoration-thickness: initial; text-decoration-style: initial; text-decoration-color: initial; float: none; display: inline !important;&quot;&gt;&lt;span&gt;&amp;nbsp;&lt;/span&gt;dst&lt;/span&gt;" style="rounded=1;whiteSpace=wrap;html=1;" vertex="1" parent="1">
          <mxGeometry x="877.06" y="1155" width="90" height="30" as="geometry" />
        </mxCell>
        <mxCell id="s-imGBTmO93pjf123Bl--18" value="" style="endArrow=classic;html=1;rounded=0;exitX=0.007;exitY=0.088;exitDx=0;exitDy=0;exitPerimeter=0;startArrow=block;startFill=0;" edge="1" parent="1" source="s-imGBTmO93pjf123Bl--4">
          <mxGeometry width="50" height="50" relative="1" as="geometry">
            <mxPoint x="280" y="1030" as="sourcePoint" />
            <mxPoint x="320" y="968" as="targetPoint" />
          </mxGeometry>
        </mxCell>
        <mxCell id="s-imGBTmO93pjf123Bl--19" value="" style="endArrow=classic;html=1;rounded=0;exitX=0.007;exitY=0.088;exitDx=0;exitDy=0;exitPerimeter=0;startArrow=block;startFill=0;" edge="1" parent="1">
          <mxGeometry width="50" height="50" relative="1" as="geometry">
            <mxPoint x="425.3" y="1000" as="sourcePoint" />
            <mxPoint x="317.3" y="1000" as="targetPoint" />
          </mxGeometry>
        </mxCell>
        <mxCell id="s-imGBTmO93pjf123Bl--20" value="" style="endArrow=classic;html=1;rounded=0;exitX=0.007;exitY=0.088;exitDx=0;exitDy=0;exitPerimeter=0;startArrow=block;startFill=0;" edge="1" parent="1">
          <mxGeometry width="50" height="50" relative="1" as="geometry">
            <mxPoint x="425.3" y="1020" as="sourcePoint" />
            <mxPoint x="317.3" y="1020" as="targetPoint" />
          </mxGeometry>
        </mxCell>
        <mxCell id="s-imGBTmO93pjf123Bl--22" style="edgeStyle=orthogonalEdgeStyle;rounded=0;orthogonalLoop=1;jettySize=auto;html=1;exitX=0.5;exitY=1;exitDx=0;exitDy=0;entryX=0.5;entryY=0;entryDx=0;entryDy=0;" edge="1" parent="1" source="s-imGBTmO93pjf123Bl--21" target="s-imGBTmO93pjf123Bl--7">
          <mxGeometry relative="1" as="geometry" />
        </mxCell>
        <mxCell id="s-imGBTmO93pjf123Bl--21" value="&lt;div style=&quot;color: rgb(56, 58, 66); font-family: Consolas, &amp;quot;Courier New&amp;quot;, monospace; font-size: 14px; line-height: 19px;&quot;&gt;&lt;div style=&quot;background-color: rgb(250, 250, 250);&quot;&gt;&lt;/div&gt;&lt;div style=&quot;&quot;&gt;&lt;div style=&quot;line-height: 19px;&quot;&gt;&lt;div style=&quot;&quot;&gt;&lt;span style=&quot;color: rgb(64, 120, 242);&quot;&gt;newMemSet&lt;/span&gt;(dst, val, size)&lt;/div&gt;&lt;/div&gt;&lt;/div&gt;&lt;/div&gt;" style="rounded=0;whiteSpace=wrap;html=1;fillColor=#ffe6cc;strokeColor=#d79b00;" vertex="1" parent="1">
          <mxGeometry x="822.06" y="930" width="200" height="30" as="geometry" />
        </mxCell>
      </root>
    </mxGraphModel>
  </diagram>
</mxfile>
